<svg xmlns="http://www.w3.org/2000/svg" viewBox="0 0 64 64" x="0px" y="0px"><title>Fingerprint</title><g><path d="M47.09,45.23a87.38,87.38,0,0,1-3.88,12.44c-.51.41-1,.8-1.56,1.15A84.47,84.47,0,0,0,46.11,45a14.5,14.5,0,0,0-28.23-6.64,51.58,51.58,0,0,1-3.75,11q-.29-.55-.57-1.12a52.56,52.56,0,0,0,3.34-10.11,15.5,15.5,0,0,1,30.18,7.1Zm-13.6-9.88a6.5,6.5,0,0,0-7.82,4.84,52.46,52.46,0,0,1-6.32,16.21l.7.64a52.52,52.52,0,0,0,6.59-16.62,5.5,5.5,0,0,1,10.71,2.52,66.54,66.54,0,0,1-7.28,18.8q.56.07,1.14.09a67.07,67.07,0,0,0,7.11-18.66A6.5,6.5,0,0,0,33.49,35.35Zm1.37-5.84a12.5,12.5,0,0,0-15,9.3A50.52,50.52,0,0,1,15.32,51.4q.3.48.62.94A50.47,50.47,0,0,0,20.81,39a11.5,11.5,0,1,1,22.39,5.27,77.43,77.43,0,0,1-5.8,16.63c.46-.16.92-.34,1.37-.54a79.9,79.9,0,0,0,5.4-15.86A12.5,12.5,0,0,0,34.86,29.51ZM32.8,38.27a3.5,3.5,0,0,0-4.21,2.61,54.37,54.37,0,0,1-7,17.44c.27.2.55.39.83.58A55.42,55.42,0,0,0,29.57,41.1a2.5,2.5,0,1,1,4.87,1.14A62,62,0,0,1,27,61.08l.92.26a63.43,63.43,0,0,0,7.45-18.86A3.5,3.5,0,0,0,32.8,38.27Zm-.69,2.92a.5.5,0,0,0-.6.37A57.82,57.82,0,0,1,24.19,59.9c.3.16.61.3.92.44a59.17,59.17,0,0,0,7.37-18.56A.5.5,0,0,0,32.11,41.19ZM40.36,4.1a17.76,17.76,0,0,0-4.16-1.7,39.27,39.27,0,0,0-8.31,0,17.72,17.72,0,0,0-4.22,1.7A38.31,38.31,0,0,1,40.36,4.1ZM34.18,32.43A9.5,9.5,0,0,0,22.75,39.5c-.7,3-2.18,9.24-5.49,14.63q.33.41.68.81c3.51-5.59,5.05-12.1,5.78-15.2a8.5,8.5,0,1,1,16.55,3.89,70.85,70.85,0,0,1-6.71,18.15q.62-.06,1.23-.17a72.88,72.88,0,0,0,6.46-17.75A9.5,9.5,0,0,0,34.18,32.43ZM39.44,10A32.42,32.42,0,0,1,50,14.61c-.32-.62-.65-1.23-1-1.81a33.52,33.52,0,0,0-34,0c-.35.58-.68,1.19-1,1.8A32.39,32.39,0,0,1,39.44,10Zm.69-2.92a35.66,35.66,0,0,1,6.33,2.14q-.77-.91-1.6-1.73a36.79,36.79,0,0,0-4.51-1.38A36.32,36.32,0,0,0,19.15,7.51q-.84.82-1.61,1.75A35.32,35.32,0,0,1,40.13,7.12ZM38.76,13A29.35,29.35,0,0,1,52.3,20.27c-.2-.66-.42-1.3-.66-1.93a30.49,30.49,0,0,0-39.28,0c-.23.63-.46,1.28-.66,1.93A29.46,29.46,0,0,1,38.76,13ZM36.24,23.67A18.49,18.49,0,0,0,14,37.44a58.23,58.23,0,0,1-2,6.84q.24.72.51,1.43a55.19,55.19,0,0,0,2.48-8,17.5,17.5,0,1,1,34.07,8,89.83,89.83,0,0,1-2.52,8.7,27.61,27.61,0,0,0,1.88-2.54c.64-2.09,1.17-4.09,1.61-5.93A18.5,18.5,0,0,0,36.24,23.67Zm.69-2.92a21.51,21.51,0,0,0-25.85,16c-.13.56-.3,1.22-.49,1.94.12.73.26,1.44.42,2.15.42-1.38.77-2.7,1-3.86a20.49,20.49,0,0,1,40.4,6,37.94,37.94,0,0,0,.91-3.85A21.51,21.51,0,0,0,36.92,20.75ZM54,30.86a24.5,24.5,0,0,0-44,0c0,.33,0,.66,0,1q0,.76,0,1.5a23.5,23.5,0,0,1,43.94,0q0-.74,0-1.48C54,31.52,54,31.19,54,30.86Zm-15.91-15A26.39,26.39,0,0,1,53.63,26.37c-.1-.71-.2-1.41-.34-2.09a27.5,27.5,0,0,0-42.58,0c-.13.69-.24,1.39-.34,2.1A26.51,26.51,0,0,1,38.07,15.88Z"></path></g></svg>